<?xml version="1.0" encoding="UTF-8" standalone="no"?>
<svg width="394px" height="520px" viewBox="0 0 394 520" version="1.1" xmlns="http://www.w3.org/2000/svg" xmlns:xlink="http://www.w3.org/1999/xlink">
    <!-- Generator: Sketch 42 (36781) - http://www.bohemiancoding.com/sketch -->
    <title>checkin</title>
    <desc>Created with Sketch.</desc>
    <defs>
        <filter x="-50%" y="-50%" width="200%" height="200%" filterUnits="objectBoundingBox" id="filter-1">
            <feOffset dx="0" dy="2" in="SourceAlpha" result="shadowOffsetOuter1"></feOffset>
            <feGaussianBlur stdDeviation="2" in="shadowOffsetOuter1" result="shadowBlurOuter1"></feGaussianBlur>
            <feColorMatrix values="0 0 0 0 1   0 0 0 0 1   0 0 0 0 1  0 0 0 0.5 0" type="matrix" in="shadowBlurOuter1" result="shadowMatrixOuter1"></feColorMatrix>
            <feMerge>
                <feMergeNode in="shadowMatrixOuter1"></feMergeNode>
                <feMergeNode in="SourceGraphic"></feMergeNode>
            </feMerge>
        </filter>
    </defs>
    <g id="Page-1" stroke="none" stroke-width="1" fill="none" fill-rule="evenodd">
        <g id="checkin" filter="url(#filter-1)" transform="translate(4.000000, 2.000000)" fill-rule="nonzero" fill="#857FA2">
            <path d="M329,339.5 L193,512 L57,339.5 C32.6666667,314.166667 16.0833333,284.416667 7.25,250.25 C-1.58333333,216.083333 -1.58333333,181.916667 7.25,147.75 C16.0833333,113.583333 32.6666667,83.6666667 57,58 C75.6666667,39 96.9166667,24.5833333 120.75,14.75 C144.583333,4.91666667 168.666667,0 193,0 C217.333333,0 241.416667,4.91666667 265.25,14.75 C289.083333,24.5833333 310.333333,39 329,58 C353.333333,83.6666667 369.916667,113.583333 378.75,147.75 C387.583333,181.916667 387.583333,216.083333 378.75,250.25 C369.916667,284.416667 353.333333,314.166667 329,339.5 Z M193.625,39 C150.99732,39 114.673733,54.0195695 84.6542398,84.0587084 C54.6347466,114.097847 39.625,150.345075 39.625,192.800391 C39.625,235.255708 54.6347466,271.402805 84.6542398,301.241683 C114.673733,331.080561 150.99732,346 193.625,346 C236.25268,346 272.576267,331.080561 302.59576,301.241683 C332.615253,271.402805 347.625,235.255708 347.625,192.800391 C347.625,150.345075 332.615253,114.097847 302.59576,84.0587084 C272.576267,54.0195695 236.25268,39 193.625,39 Z M194.625,304 C163.984375,304 137.824219,293.160156 116.144531,271.480469 C94.4648437,249.800781 83.625,223.640625 83.625,193 C83.625,162.359375 94.4648437,136.199219 116.144531,114.519531 C137.824219,92.8398438 163.984375,82 194.625,82 C225.265625,82 251.425781,92.8398438 273.105469,114.519531 C294.785156,136.199219 305.625,162.359375 305.625,193 C305.625,223.640625 294.785156,249.800781 273.105469,271.480469 C251.425781,293.160156 225.265625,304 194.625,304 Z" id="Shape"></path>
        </g>
    </g>
</svg>